<?xml version="1.0" encoding="UTF-8" ?>
<!DOCTYPE svg PUBLIC "-//W3C//DTD SVG 1.1//EN" "http://www.w3.org/Graphics/SVG/1.1/DTD/svg11.dtd">
<svg width="512pt" height="512pt" viewBox="0 0 512 512" version="1.1" xmlns="http://www.w3.org/2000/svg">
<g id="#000000ff">
<path fill="#000000" opacity="1.00" d=" M 24.84 5.81 C 31.37 2.53 38.69 0.93 45.98 1.00 C 185.65 0.99 325.31 1.01 464.97 0.99 C 471.61 0.92 478.33 1.87 484.45 4.54 C 500.36 11.07 511.51 27.33 512.00 44.52 L 512.00 467.45 C 511.53 485.50 499.21 502.43 482.15 508.36 C 475.39 510.90 468.08 511.14 460.95 511.01 C 322.63 510.99 184.31 511.01 45.99 510.99 C 39.71 511.06 33.43 509.87 27.63 507.46 C 12.17 501.17 1.27 485.73 0.00 469.14 L 0.00 44.51 C 0.47 28.35 10.34 12.95 24.84 5.81 M 30.02 45.94 C 29.98 70.96 30.01 95.98 30.00 121.00 C 180.67 121.00 331.33 121.00 482.00 121.00 C 481.99 95.98 482.03 70.96 481.98 45.95 C 482.11 37.98 475.00 30.87 467.03 31.02 C 326.35 30.99 185.66 30.99 44.97 31.02 C 37.01 30.87 29.88 37.97 30.02 45.94 M 30.00 151.00 C 29.99 255.68 30.02 360.35 29.99 465.03 C 29.67 471.01 33.14 477.00 38.60 479.51 C 42.13 481.32 46.18 481.00 50.01 481.01 C 189.01 480.98 328.01 481.03 467.01 480.98 C 474.99 481.13 482.10 474.02 481.98 466.05 C 482.03 361.03 481.99 256.02 482.00 151.00 C 331.33 151.00 180.67 151.00 30.00 151.00 Z" />
<path fill="#000000" opacity="1.00" d=" M 73.20 61.28 C 80.46 59.73 88.32 64.53 90.32 71.68 C 92.89 79.27 87.99 88.22 80.29 90.33 C 72.68 92.89 63.76 87.95 61.65 80.26 C 58.90 72.12 64.79 62.69 73.20 61.28 Z" />
<path fill="#000000" opacity="1.00" d=" M 133.22 61.27 C 140.50 59.73 148.35 64.56 150.33 71.71 C 152.88 79.32 147.96 88.25 140.26 90.34 C 132.66 92.88 123.77 87.94 121.66 80.27 C 118.89 72.12 124.80 62.67 133.22 61.27 Z" />
<path fill="#000000" opacity="1.00" d=" M 193.17 61.28 C 200.46 59.71 208.35 64.54 210.33 71.71 C 212.87 79.29 207.99 88.19 200.33 90.32 C 192.71 92.91 183.74 87.96 181.64 80.24 C 178.92 72.11 184.79 62.70 193.17 61.28 Z" />
<path fill="#000000" opacity="1.00" d=" M 343.22 61.28 C 345.79 60.86 348.40 61.01 351.00 60.99 C 379.36 61.02 407.72 60.97 436.07 61.02 C 442.48 60.98 448.57 65.52 450.33 71.69 C 452.59 78.52 448.92 86.59 442.39 89.52 C 438.88 91.31 434.84 91.01 431.02 91.01 C 402.66 90.98 374.30 91.03 345.94 90.98 C 338.72 91.06 332.09 85.26 331.16 78.11 C 329.88 70.45 335.59 62.58 343.22 61.28 Z" />
<path fill="#000000" opacity="1.00" d=" M 298.21 196.29 C 304.47 194.99 311.25 198.23 314.17 203.91 C 316.47 208.08 316.48 213.30 314.49 217.60 C 284.60 287.30 254.76 357.02 224.86 426.71 C 222.02 433.85 213.31 437.80 206.08 435.16 C 197.81 432.51 193.55 422.11 197.51 414.38 C 227.54 344.41 257.45 274.37 287.55 204.42 C 289.56 200.23 293.65 197.15 298.21 196.29 Z" />
<path fill="#000000" opacity="1.00" d=" M 156.46 244.42 C 160.64 241.00 166.70 240.04 171.69 242.16 C 177.24 244.31 181.02 250.05 180.95 255.98 C 181.00 260.65 178.66 265.16 175.01 268.03 C 155.05 284.05 135.02 299.98 115.06 316.00 C 135.01 332.02 155.05 347.95 175.01 363.97 C 179.53 367.44 181.92 373.53 180.62 379.14 C 179.59 384.55 175.24 389.02 169.94 390.43 C 165.30 391.74 160.13 390.56 156.41 387.54 C 131.43 367.54 106.42 347.57 81.46 327.55 C 74.24 322.00 74.25 309.89 81.53 304.39 C 106.49 284.38 131.49 264.42 156.46 244.42 Z" />
<path fill="#000000" opacity="1.00" d=" M 332.18 250.25 C 335.44 241.42 347.65 238.15 354.97 244.00 C 380.21 264.10 405.41 284.25 430.56 304.45 C 437.74 310.02 437.70 322.03 430.52 327.58 C 405.58 347.64 380.54 367.59 355.53 387.58 C 350.36 391.87 342.36 392.09 337.03 387.98 C 331.17 383.83 329.30 375.17 332.81 368.94 C 334.44 365.63 337.57 363.54 340.35 361.31 C 359.23 346.21 378.11 331.11 396.98 316.00 C 377.00 300.00 357.02 284.01 337.02 268.03 C 331.68 264.05 329.50 256.40 332.18 250.25 Z" />
</g>
</svg>
